<svg width="920" height="1200" viewBox="0 0 920 1200" fill="none" xmlns="http://www.w3.org/2000/svg">
  <rect width="920" height="1200" fill="#061012"/>
  <ellipse cx="760" cy="1020" rx="640" ry="440" transform="rotate(-11 760 1020)" fill="url(#paint0_radial)" fill-opacity="0.7"/>
  <ellipse cx="120" cy="1000" rx="520" ry="360" transform="rotate(-18 120 1000)" fill="url(#paint1_radial)" fill-opacity="0.6"/>
  <path d="M-120 1040C122 910 316 870 510 890C702 910 836 976 1010 1140" stroke="url(#paint2_linear)" stroke-width="2"/>
  <path d="M-140 900C102 770 304 734 508 754C712 774 860 840 1040 1010" stroke="url(#paint3_linear)" stroke-width="2"/>
  <path d="M-160 760C84 630 284 594 488 614C692 634 844 702 1020 876" stroke="url(#paint4_linear)" stroke-width="2"/>
  <path d="M-190 620C52 494 258 454 466 474C674 494 830 566 1008 744" stroke="url(#paint5_linear)" stroke-width="2"/>
  <path d="M-220 474C20 350 236 314 448 336C660 358 820 430 998 612" stroke="url(#paint6_linear)" stroke-width="2"/>
  <defs>
    <radialGradient id="paint0_radial" cx="0" cy="0" r="1" gradientUnits="userSpaceOnUse" gradientTransform="translate(760 1020) rotate(90) scale(440 640)">
      <stop stop-color="#122227"/>
      <stop offset="1" stop-color="#061012" stop-opacity="0"/>
    </radialGradient>
    <radialGradient id="paint1_radial" cx="0" cy="0" r="1" gradientUnits="userSpaceOnUse" gradientTransform="translate(120 1000) rotate(90) scale(360 520)">
      <stop stop-color="#1A3034"/>
      <stop offset="1" stop-color="#061012" stop-opacity="0"/>
    </radialGradient>
    <linearGradient id="paint2_linear" x1="-120" y1="1040" x2="1010" y2="1140" gradientUnits="userSpaceOnUse">
      <stop stop-color="#987D40"/>
      <stop offset="1" stop-color="#2D342A"/>
    </linearGradient>
    <linearGradient id="paint3_linear" x1="-140" y1="900" x2="1040" y2="1010" gradientUnits="userSpaceOnUse">
      <stop stop-color="#987D40"/>
      <stop offset="1" stop-color="#304032"/>
    </linearGradient>
    <linearGradient id="paint4_linear" x1="-160" y1="760" x2="1020" y2="876" gradientUnits="userSpaceOnUse">
      <stop stop-color="#987D40"/>
      <stop offset="1" stop-color="#355243"/>
    </linearGradient>
    <linearGradient id="paint5_linear" x1="-190" y1="620" x2="1008" y2="744" gradientUnits="userSpaceOnUse">
      <stop stop-color="#9A8042"/>
      <stop offset="1" stop-color="#3A5F4F"/>
    </linearGradient>
    <linearGradient id="paint6_linear" x1="-220" y1="474" x2="998" y2="612" gradientUnits="userSpaceOnUse">
      <stop stop-color="#A98A49"/>
      <stop offset="1" stop-color="#426E5D"/>
    </linearGradient>
  </defs>
</svg>
